<svg width="34" height="34" viewBox="0 0 34 34" fill="none" xmlns="http://www.w3.org/2000/svg">
<path d="M31.003 8.74944L16.6519 23.1005C15.2228 24.5296 10.9806 25.1915 10.0328 24.2438C9.08513 23.2961 9.73199 19.0539 11.1611 17.6248L25.5273 3.25865C25.8816 2.87213 26.3105 2.56143 26.7883 2.34526C27.2659 2.12909 27.7825 2.0119 28.3067 2.00086C28.8308 1.98983 29.3519 2.08512 29.8383 2.28099C30.3246 2.47687 30.7663 2.76931 31.1365 3.14057C31.5067 3.51184 31.7979 3.95426 31.9924 4.44114C32.1869 4.92804 32.281 5.44929 32.2685 5.97347C32.256 6.49765 32.1373 7.01391 31.9199 7.49101C31.7024 7.9681 31.3906 8.39621 31.003 8.74944Z" stroke="#009DE0" stroke-width="3" stroke-linecap="round" stroke-linejoin="round"/>
<path d="M15.5388 5.13901H8.01726C6.42138 5.13901 4.89096 5.77296 3.7625 6.90142C2.63405 8.02988 2 9.56038 2 11.1563V26.1994C2 27.7953 2.63405 29.3258 3.7625 30.4542C4.89096 31.5828 6.42138 32.2167 8.01726 32.2167H24.5647C27.8893 32.2167 29.0777 29.5089 29.0777 26.1994V18.6778" stroke="#009DE0" stroke-width="3" stroke-linecap="round" stroke-linejoin="round"/>
</svg>
