<svg width="48" height="50" viewBox="0 0 48 50" fill="none" xmlns="http://www.w3.org/2000/svg">
<path opacity="0.5" d="M4.08831 23.9333C5.24276 18.161 5.81998 15.2749 7.89356 13.5749C9.96716 11.875 12.9104 11.875 18.797 11.875H29.203C35.0895 11.875 38.0328 11.875 40.1063 13.5749C42.18 15.2749 42.7573 18.161 43.9115 23.9333L45.4115 31.4333C47.0718 39.7343 47.902 43.8848 45.6515 46.63C43.401 49.375 39.1683 49.375 30.703 49.375H17.297C8.83158 49.375 4.59886 49.375 2.34841 46.63C0.0979823 43.8848 0.928082 39.7343 2.58831 31.4333L4.08831 23.9333Z" fill="#D6EFFA"/>
<path d="M31.5 23C32.8807 23 34 21.8807 34 20.5C34 19.1193 32.8807 18 31.5 18C30.1193 18 29 19.1193 29 20.5C29 21.8807 30.1193 23 31.5 23Z" fill="#009DE0"/>
<path d="M16.5 23C17.8807 23 19 21.8807 19 20.5C19 19.1193 17.8807 18 16.5 18C15.1193 18 14 19.1193 14 20.5C14 21.8807 15.1193 23 16.5 23Z" fill="#009DE0"/>
<path d="M18.375 9.375C18.375 6.2684 20.8935 3.75 24 3.75C27.1065 3.75 29.625 6.2684 29.625 9.375V11.875H30.703C31.645 11.875 32.5347 11.875 33.375 11.8788V9.375C33.375 4.19733 29.1777 0 24 0C18.8223 0 14.625 4.19733 14.625 9.375V11.8788C15.4653 11.875 16.3549 11.875 17.297 11.875H18.375V9.375Z" fill="#009DE0"/>
<path d="M23.9488 30.7501C26.395 30.7501 28.481 32.3127 29.2542 34.4999C29.5993 35.4763 30.6705 35.988 31.6468 35.6429C32.6232 35.2978 33.1349 34.2266 32.7898 33.2503C31.5037 29.6116 28.0335 27 23.9488 27C19.864 27 16.3938 29.6116 15.1078 33.2503C14.7625 34.2266 15.2743 35.2978 16.2508 35.6429C17.227 35.988 18.2983 35.4763 18.6433 34.4999C19.4165 32.3127 21.5025 30.7501 23.9488 30.7501Z" fill="#009DE0"/>
</svg>
