<svg width="28" height="28" viewBox="0 0 28 28" fill="none" xmlns="http://www.w3.org/2000/svg">
<path d="M3.99774 0.683299L14 10.6858L24.0023 0.683299C24.8365 -0.150904 26.1583 -0.228596 27.1458 0.542877L27.3167 0.698506C28.2277 1.60957 28.2278 3.0867 27.3167 3.99778L17.3142 14L27.3167 24.0022C28.1509 24.8364 28.2286 26.1583 27.4571 27.1458L27.3015 27.3167C26.3905 28.2278 24.9133 28.2278 24.0022 27.3167L14 17.3142L3.99774 27.3167C3.16353 28.1509 1.84168 28.2286 0.854201 27.4571L0.683303 27.3015C-0.227762 26.3904 -0.227773 24.9133 0.683303 24.0022L10.6858 14L0.683303 3.99777C-0.150901 3.16356 -0.228592 1.84167 0.542881 0.854193L0.69847 0.683299C1.60954 -0.227766 3.08667 -0.227766 3.99774 0.683299ZM2.36679 26.8332C2.36058 26.8333 2.35436 26.8333 2.34814 26.8333L2.36679 26.8332ZM2.52167 26.8204L2.47054 26.8269C2.48749 26.8252 2.50461 26.823 2.52167 26.8204ZM2.17617 26.8207L2.19696 26.8235C2.18991 26.8226 2.18321 26.8217 2.17617 26.8207ZM2.02956 26.7892L2.04778 26.7942C2.04149 26.7925 2.03582 26.791 2.02956 26.7892ZM2.66978 26.7883L2.60691 26.8044C2.62792 26.7997 2.64892 26.7943 2.66978 26.7883ZM2.8018 26.7418L2.75331 26.761C2.76947 26.755 2.78567 26.7486 2.8018 26.7418ZM1.89426 26.7417C1.89704 26.7429 1.90001 26.7441 1.89426 26.7417ZM1.7574 26.673L1.63336 26.5888C1.68516 26.629 1.73953 26.6643 1.79592 26.6947L1.7574 26.673ZM2.93831 26.6733L2.90078 26.6944C2.9131 26.6878 2.92574 26.6807 2.93831 26.6733ZM26.6947 26.204L26.673 26.2426L26.5887 26.3667C26.629 26.3149 26.6644 26.2604 26.6947 26.204ZM26.7593 26.0617L26.7418 26.1057C26.7479 26.091 26.7538 26.0764 26.7593 26.0617ZM26.8039 25.9129L26.7892 25.9704C26.7945 25.9517 26.7995 25.9324 26.8039 25.9129ZM26.8268 25.775L26.8207 25.8238C26.823 25.8078 26.8251 25.7914 26.8268 25.775ZM25.6518 2.33293L14 13.9851L2.34814 2.33293L2.3329 2.34813L13.9851 14L2.3329 25.6519L2.34814 25.6671L14 14.0149L25.6518 25.6671L25.6671 25.6519L14.0149 14L25.6671 2.34813L25.6518 2.33293ZM26.8332 25.6332L26.8333 25.667C26.8334 25.6558 26.8334 25.6445 26.8332 25.6332ZM26.8204 25.4784L26.8269 25.5295C26.8251 25.5125 26.823 25.4954 26.8204 25.4784ZM26.7883 25.3302L26.8044 25.3931C26.7997 25.372 26.7943 25.3511 26.7883 25.3302ZM26.7418 25.1982L26.761 25.2467C26.755 25.2306 26.7486 25.2143 26.7418 25.1982ZM26.6733 25.0617L26.6944 25.0992C26.6878 25.0869 26.6807 25.0742 26.6733 25.0617ZM1.30559 2.90077L1.32317 2.93232C1.31704 2.92173 1.31136 2.91151 1.30559 2.90077ZM1.23901 2.75328L1.25467 2.79348C1.24915 2.78009 1.24401 2.76683 1.23901 2.75328ZM1.19557 2.60693L1.20582 2.64846C1.20216 2.63464 1.19872 2.62086 1.19557 2.60693ZM1.17257 2.46588L1.17642 2.49933C1.17496 2.48813 1.1737 2.47711 1.17257 2.46588ZM1.16716 2.31428L1.16666 2.34813C1.16666 2.33678 1.16683 2.32564 1.16716 2.31428ZM1.17934 2.17615L1.17642 2.19695C1.17733 2.18989 1.17829 2.18319 1.17934 2.17615ZM1.21081 2.02959L1.20582 2.04782C1.20749 2.04153 1.20903 2.03586 1.21081 2.02959ZM1.25823 1.89426C1.25706 1.89704 1.25582 1.90001 1.25823 1.89426ZM1.32702 1.75742L1.41126 1.63333C1.37098 1.68514 1.33563 1.73957 1.3053 1.79596L1.32702 1.75742ZM2.90028 1.30532L2.93888 1.327L3.06292 1.41124C3.01111 1.37095 2.95668 1.33565 2.90028 1.30532ZM25.0992 1.30556L25.0677 1.32319C25.0783 1.31705 25.0885 1.31134 25.0992 1.30556ZM1.7955 1.30556L1.76395 1.32319C1.77455 1.31705 1.78475 1.31134 1.7955 1.30556ZM26.2041 1.30532L26.2426 1.327L26.3666 1.41124C26.3148 1.37095 26.2605 1.33565 26.2041 1.30532ZM1.93834 1.24073L1.90281 1.25471C1.91457 1.24986 1.92646 1.24519 1.93834 1.24073ZM2.7531 1.23892L2.80202 1.25827C2.78571 1.25139 2.76946 1.24497 2.7531 1.23892ZM25.2467 1.239L25.2065 1.25471C25.2199 1.24919 25.2331 1.244 25.2467 1.239ZM26.0617 1.24076L26.1057 1.25827C26.091 1.25207 26.0764 1.24626 26.0617 1.24076ZM2.08745 1.19601L2.04778 1.2058C2.06084 1.20233 2.0743 1.19902 2.08745 1.19601ZM2.60684 1.19557L2.67 1.21173C2.64897 1.20572 2.62794 1.20035 2.60684 1.19557ZM25.3931 1.19558L25.3516 1.2058C25.3654 1.20213 25.3792 1.19874 25.3931 1.19558ZM25.9129 1.19609L25.9704 1.21079C25.9518 1.2055 25.9324 1.20054 25.9129 1.19609ZM2.22993 1.17263L2.19696 1.17645C2.20785 1.17503 2.21902 1.17374 2.22993 1.17263ZM2.4657 1.17257L2.52153 1.17956C2.50301 1.17679 2.48439 1.17445 2.4657 1.17257ZM25.5341 1.17259L25.5007 1.17645C25.5119 1.17499 25.5229 1.17372 25.5341 1.17259ZM25.7703 1.17266L25.8238 1.17934C25.8063 1.17673 25.7883 1.17449 25.7703 1.17266ZM25.618 1.16715L25.6859 1.16716C25.6633 1.1665 25.6406 1.1665 25.618 1.16715ZM2.3141 1.16716L2.38196 1.16715C2.35935 1.1665 2.33672 1.1665 2.3141 1.16716Z" fill="#009DE0"/>
</svg>
