<svg width="208" height="208" viewBox="0 0 208 208" fill="none" xmlns="http://www.w3.org/2000/svg">
<g filter="url(#filter0_d_15_7)">
<rect x="4" width="200" height="200" rx="100" fill="#00C2E8"/>
</g>
<path d="M51.4 124.32C49.8533 124.373 48.3067 124.24 46.76 123.92C45.2133 123.6 43.9067 122.933 42.84 121.92C42.8933 120.587 42.8667 118.613 42.76 116C42.7067 113.387 42.5733 110.48 42.36 107.28C42.1467 104.027 41.8 100.747 41.32 97.44C40.8933 94.1333 40.3067 91.0933 39.56 88.32C38.8667 85.4933 38.0133 83.2267 37 81.52C35.9867 79.8133 34.7867 78.96 33.4 78.96C32.1733 78.96 30.7867 79.6267 29.24 80.96L28.68 80.48C30.1733 75.8933 32.12 72.4 34.52 70C36.9733 67.6 39.5067 66.4 42.12 66.4C44.4133 66.4 46.3333 67.2 47.88 68.8C49.4267 70.4 50.6533 72.56 51.56 75.28C52.52 77.9467 53.1867 80.96 53.56 84.32C53.9867 87.6267 54.2 91.0133 54.2 94.48C54.2 97.2533 54.0933 99.9733 53.88 102.64C53.6667 105.307 53.3733 107.76 53 110C55.8267 106.427 58.2 102.533 60.12 98.32C62.04 94.0533 63.5067 89.84 64.52 85.68C65.5333 81.4667 66.04 77.68 66.04 74.32C66.04 73.68 66.0133 73.04 65.96 72.4C65.9067 71.7067 65.8267 71.0933 65.72 70.56C66.84 69.12 68.28 68.0267 70.04 67.28C71.8 66.48 73.56 66.08 75.32 66.08C77.0267 66.08 78.52 66.4533 79.8 67.2C81.08 67.8933 81.88 69.0133 82.2 70.56C81.5067 75.6267 80.12 80.6933 78.04 85.76C76.0133 90.8267 73.5333 95.7333 70.6 100.48C67.6667 105.173 64.52 109.547 61.16 113.6C57.8533 117.653 54.6 121.227 51.4 124.32ZM98.2056 124.56C94.2056 124.56 90.899 123.76 88.2856 122.16C85.6723 120.56 83.7256 118.453 82.4456 115.84C81.219 113.173 80.6056 110.347 80.6056 107.36C80.6056 104.533 81.1123 101.707 82.1256 98.88C83.1923 96.0533 84.7123 93.4933 86.6856 91.2C88.7123 88.8533 91.1656 86.9867 94.0456 85.6C96.9256 84.16 100.232 83.44 103.966 83.44C107.966 83.44 111.246 84.2667 113.806 85.92C116.419 87.52 118.339 89.6533 119.566 92.32C120.846 94.9867 121.486 97.84 121.486 100.88C121.486 103.653 120.979 106.453 119.966 109.28C118.952 112.053 117.432 114.613 115.406 116.96C113.432 119.253 111.006 121.093 108.126 122.48C105.246 123.867 101.939 124.56 98.2056 124.56ZM100.366 117.76C101.806 117.76 103.006 117.013 103.966 115.52C104.926 114.027 105.646 112.133 106.126 109.84C106.606 107.493 106.846 105.12 106.846 102.72C106.846 100.587 106.632 98.5867 106.206 96.72C105.832 94.8 105.246 93.2533 104.446 92.08C103.646 90.8533 102.606 90.24 101.326 90.24C99.939 90.24 98.739 90.9867 97.7256 92.48C96.7656 93.9733 96.0456 95.8667 95.5656 98.16C95.0856 100.453 94.8456 102.827 94.8456 105.28C94.8456 107.413 95.0323 109.44 95.4056 111.36C95.8323 113.227 96.4456 114.773 97.2456 116C98.0456 117.173 99.0856 117.76 100.366 117.76ZM136.251 124.32C134.811 124.32 133.398 123.973 132.011 123.28C130.678 122.533 129.585 121.36 128.731 119.76C127.878 118.16 127.451 116.107 127.451 113.6C127.451 111.36 127.745 108.747 128.331 105.76C128.971 102.72 129.665 99.5733 130.411 96.32C131.211 93.0667 131.905 89.8933 132.491 86.8C133.078 83.7067 133.345 80.96 133.291 78.56C133.291 76.2667 133.025 74.64 132.491 73.68L132.411 73.44C132.998 71.7333 134.038 70.4 135.531 69.44C137.025 68.48 138.598 68 140.251 68C142.118 68 143.771 68.72 145.211 70.16C146.705 71.5467 147.451 73.8933 147.451 77.2C147.451 78.96 147.238 81.0667 146.811 83.52C146.385 85.92 145.878 88.5067 145.291 91.28C144.705 94 144.091 96.6933 143.451 99.36C142.865 102.027 142.358 104.48 141.931 106.72C141.505 108.96 141.291 110.8 141.291 112.24C141.291 113.733 141.505 114.773 141.931 115.36C142.358 115.893 142.838 116.16 143.371 116.16C143.958 116.16 144.518 115.947 145.051 115.52C145.585 115.04 145.931 114.613 146.091 114.24L146.731 114.4C146.678 116.32 146.118 118.027 145.051 119.52C144.038 121.013 142.731 122.187 141.131 123.04C139.585 123.893 137.958 124.32 136.251 124.32ZM164.544 124.32C162.838 124.32 161.211 123.947 159.664 123.2C158.171 122.4 156.944 121.173 155.984 119.52C155.078 117.867 154.624 115.76 154.624 113.2C154.624 111.813 154.758 110 155.024 107.76C155.291 105.52 155.638 103.067 156.064 100.4C156.544 97.7333 157.024 95.0667 157.504 92.4C156.438 92.4533 155.398 92.56 154.384 92.72C153.424 92.88 152.464 93.0667 151.504 93.28L151.344 92.72C152.411 91.44 153.531 90.3467 154.704 89.44C155.878 88.5333 157.104 87.7867 158.384 87.2C159.078 83.68 159.664 80.64 160.144 78.08C160.624 75.4667 160.864 73.92 160.864 73.44C160.864 72.5333 161.558 71.7867 162.944 71.2C164.384 70.6133 165.984 70.32 167.744 70.32C169.291 70.32 170.731 70.6133 172.064 71.2C173.451 71.7867 174.384 72.7733 174.864 74.16C174.544 74.48 174.091 75.68 173.504 77.76C172.918 79.7867 172.304 82.2667 171.664 85.2C172.678 85.2533 173.718 85.3067 174.784 85.36C175.851 85.4133 176.944 85.4933 178.064 85.6C178.171 85.92 178.251 86.2667 178.304 86.64C178.358 87.0133 178.384 87.4133 178.384 87.84C178.384 88.64 178.251 89.52 177.984 90.48C177.771 91.3867 177.504 92.2133 177.184 92.96C175.904 92.8533 174.704 92.7467 173.584 92.64C172.464 92.48 171.371 92.3733 170.304 92.32C169.878 94.6133 169.478 96.9067 169.104 99.2C168.784 101.493 168.518 103.573 168.304 105.44C168.144 107.307 168.064 108.773 168.064 109.84C168.064 112.08 168.464 113.573 169.264 114.32C170.118 115.067 171.131 115.44 172.304 115.44C173.371 115.44 174.331 115.227 175.184 114.8C176.038 114.373 176.651 113.867 177.024 113.28L177.824 113.52C177.504 115.707 176.651 117.627 175.264 119.28C173.878 120.88 172.224 122.133 170.304 123.04C168.384 123.893 166.464 124.32 164.544 124.32Z" fill="white"/>
<defs>
<filter id="filter0_d_15_7" x="0" y="0" width="208" height="208" filterUnits="userSpaceOnUse" color-interpolation-filters="sRGB">
<feFlood flood-opacity="0" result="BackgroundImageFix"/>
<feColorMatrix in="SourceAlpha" type="matrix" values="0 0 0 0 0 0 0 0 0 0 0 0 0 0 0 0 0 0 127 0" result="hardAlpha"/>
<feOffset dy="4"/>
<feGaussianBlur stdDeviation="2"/>
<feComposite in2="hardAlpha" operator="out"/>
<feColorMatrix type="matrix" values="0 0 0 0 0 0 0 0 0 0 0 0 0 0 0 0 0 0 0.25 0"/>
<feBlend mode="normal" in2="BackgroundImageFix" result="effect1_dropShadow_15_7"/>
<feBlend mode="normal" in="SourceGraphic" in2="effect1_dropShadow_15_7" result="shape"/>
</filter>
</defs>
</svg>
