<svg width="180" height="71" viewBox="0 0 180 71" fill="none" xmlns="http://www.w3.org/2000/svg">
<path d="M27.28 70.384C25.424 70.448 23.568 70.288 21.712 69.904C19.856 69.52 18.288 68.72 17.008 67.504C17.072 65.904 17.04 63.536 16.912 60.4C16.848 57.264 16.688 53.776 16.432 49.936C16.176 46.032 15.76 42.096 15.184 38.128C14.672 34.16 13.968 30.512 13.072 27.184C12.24 23.792 11.216 21.072 10 19.024C8.784 16.976 7.344 15.952 5.68 15.952C4.208 15.952 2.544 16.752 0.688 18.352L0.0160002 17.776C1.808 12.272 4.144 8.08 7.024 5.2C9.968 2.32 13.008 0.879997 16.144 0.879997C18.896 0.879997 21.2 1.84 23.056 3.75999C24.912 5.68 26.384 8.272 27.472 11.536C28.624 14.736 29.424 18.352 29.872 22.384C30.384 26.352 30.64 30.416 30.64 34.576C30.64 37.904 30.512 41.168 30.256 44.368C30 47.568 29.648 50.512 29.2 53.2C32.592 48.912 35.44 44.24 37.744 39.184C40.048 34.064 41.808 29.008 43.024 24.016C44.24 18.96 44.848 14.416 44.848 10.384C44.848 9.616 44.816 8.848 44.752 8.08C44.688 7.248 44.592 6.512 44.464 5.872C45.808 4.144 47.536 2.832 49.648 1.936C51.76 0.975996 53.872 0.495996 55.984 0.495996C58.032 0.495996 59.824 0.943996 61.36 1.84C62.896 2.672 63.856 4.016 64.24 5.872C63.408 11.952 61.744 18.032 59.248 24.112C56.816 30.192 53.84 36.08 50.32 41.776C46.8 47.408 43.024 52.656 38.992 57.52C35.024 62.384 31.12 66.672 27.28 70.384ZM83.4467 70.672C78.6467 70.672 74.6787 69.712 71.5427 67.792C68.4067 65.872 66.0707 63.344 64.5347 60.208C63.0627 57.008 62.3267 53.616 62.3267 50.032C62.3267 46.64 62.9347 43.248 64.1507 39.856C65.4307 36.464 67.2547 33.392 69.6227 30.64C72.0547 27.824 74.9987 25.584 78.4547 23.92C81.9107 22.192 85.8787 21.328 90.3588 21.328C95.1587 21.328 99.0947 22.32 102.167 24.304C105.303 26.224 107.607 28.784 109.079 31.984C110.615 35.184 111.383 38.608 111.383 42.256C111.383 45.584 110.775 48.944 109.559 52.336C108.343 55.664 106.519 58.736 104.087 61.552C101.719 64.304 98.8068 66.512 95.3507 68.176C91.8947 69.84 87.9267 70.672 83.4467 70.672ZM86.0387 62.512C87.7667 62.512 89.2067 61.616 90.3588 59.824C91.5108 58.032 92.3748 55.76 92.9507 53.008C93.5267 50.192 93.8147 47.344 93.8147 44.464C93.8147 41.904 93.5587 39.504 93.0468 37.264C92.5988 34.96 91.8947 33.104 90.9347 31.696C89.9747 30.224 88.7267 29.488 87.1907 29.488C85.5267 29.488 84.0867 30.384 82.8707 32.176C81.7187 33.968 80.8547 36.24 80.2787 38.992C79.7027 41.744 79.4147 44.592 79.4147 47.536C79.4147 50.096 79.6387 52.528 80.0867 54.832C80.5987 57.072 81.3347 58.928 82.2947 60.4C83.2547 61.808 84.5027 62.512 86.0387 62.512ZM129.101 70.384C127.373 70.384 125.677 69.968 124.013 69.136C122.413 68.24 121.101 66.832 120.077 64.912C119.053 62.992 118.541 60.528 118.541 57.52C118.541 54.832 118.893 51.696 119.597 48.112C120.365 44.464 121.197 40.688 122.093 36.784C123.053 32.88 123.885 29.072 124.589 25.36C125.293 21.648 125.613 18.352 125.549 15.472C125.549 12.72 125.229 10.768 124.589 9.616L124.493 9.328C125.197 7.28 126.445 5.68 128.237 4.528C130.029 3.376 131.917 2.8 133.901 2.8C136.141 2.8 138.125 3.664 139.853 5.392C141.645 7.056 142.541 9.872 142.541 13.84C142.541 15.952 142.285 18.48 141.773 21.424C141.261 24.304 140.653 27.408 139.949 30.736C139.245 34 138.509 37.232 137.741 40.432C137.037 43.632 136.429 46.576 135.917 49.264C135.405 51.952 135.149 54.16 135.149 55.888C135.149 57.68 135.405 58.928 135.917 59.632C136.429 60.272 137.005 60.592 137.645 60.592C138.349 60.592 139.021 60.336 139.661 59.824C140.301 59.248 140.717 58.736 140.909 58.288L141.677 58.48C141.613 60.784 140.941 62.832 139.661 64.624C138.445 66.416 136.877 67.824 134.957 68.848C133.101 69.872 131.149 70.384 129.101 70.384ZM163.053 70.384C161.005 70.384 159.053 69.936 157.197 69.04C155.405 68.08 153.933 66.608 152.781 64.624C151.693 62.64 151.149 60.112 151.149 57.04C151.149 55.376 151.309 53.2 151.629 50.512C151.949 47.824 152.365 44.88 152.877 41.68C153.453 38.48 154.029 35.28 154.605 32.08C153.325 32.144 152.077 32.272 150.861 32.464C149.709 32.656 148.557 32.88 147.405 33.136L147.213 32.464C148.493 30.928 149.837 29.616 151.245 28.528C152.653 27.44 154.125 26.544 155.661 25.84C156.493 21.616 157.197 17.968 157.773 14.896C158.349 11.76 158.637 9.904 158.637 9.328C158.637 8.24 159.469 7.344 161.133 6.64C162.861 5.936 164.781 5.584 166.893 5.584C168.749 5.584 170.477 5.936 172.077 6.64C173.741 7.344 174.861 8.528 175.437 10.192C175.053 10.576 174.509 12.016 173.805 14.512C173.101 16.944 172.365 19.92 171.597 23.44C172.813 23.504 174.061 23.568 175.341 23.632C176.621 23.696 177.933 23.792 179.277 23.92C179.405 24.304 179.501 24.72 179.565 25.168C179.629 25.616 179.661 26.096 179.661 26.608C179.661 27.568 179.501 28.624 179.181 29.776C178.925 30.864 178.605 31.856 178.221 32.752C176.685 32.624 175.245 32.496 173.901 32.368C172.557 32.176 171.245 32.048 169.965 31.984C169.453 34.736 168.973 37.488 168.525 40.24C168.141 42.992 167.821 45.488 167.565 47.728C167.373 49.968 167.277 51.728 167.277 53.008C167.277 55.696 167.757 57.488 168.717 58.384C169.741 59.28 170.957 59.728 172.365 59.728C173.645 59.728 174.797 59.472 175.821 58.96C176.845 58.448 177.581 57.84 178.029 57.136L178.989 57.424C178.605 60.048 177.581 62.352 175.917 64.336C174.253 66.256 172.269 67.76 169.965 68.848C167.661 69.872 165.357 70.384 163.053 70.384Z" fill="white"/>
</svg>
