<svg width="42" height="38" viewBox="0 0 42 38" fill="none" xmlns="http://www.w3.org/2000/svg">
<path d="M41.1526 31.1943C41.242 31.5741 41.2895 31.9699 41.2895 32.3768C41.2895 35.2167 38.9877 37.5191 36.1477 37.5191C33.417 37.5191 31.1831 35.3901 31.0158 32.7014L32.7519 32.4441C32.7872 34.2867 34.2974 35.7743 36.1477 35.7743C38.0206 35.7743 39.5446 34.2503 39.5446 32.3768C39.5446 32.0561 39.4999 31.7464 39.4171 31.4522L41.1526 31.1943Z" fill="#009DE0"/>
<path d="M5.6168 31.0512C5.87126 30.8875 6.17413 30.7925 6.49927 30.7925C6.96217 30.7925 7.38026 30.985 7.6778 31.2941C7.86194 31.4857 8 31.7221 8.07368 31.9853C8.11304 32.1258 8.13409 32.274 8.13409 32.4271C8.13409 33.3301 7.40221 34.0619 6.49927 34.0619C5.59651 34.0619 4.86464 33.3301 4.86464 32.4271C4.86464 32.274 4.88569 32.1258 4.92505 31.9853C5.03425 31.5956 5.28434 31.2647 5.6168 31.0512Z" fill="#009DE0"/>
<path d="M34.5182 32.4269C34.5182 32.3424 34.5248 32.259 34.537 32.1779L37.6259 31.7186C37.6673 31.8036 37.7009 31.8925 37.7269 31.9853C37.7661 32.126 37.7871 32.2739 37.7871 32.4269C37.7871 33.3299 37.0557 34.0619 36.1526 34.0619C35.2496 34.0619 34.5182 33.3299 34.5182 32.4269Z" fill="#009DE0"/>
<path d="M3.23185 23.7805C3.20755 21.71 3.64363 19.9563 5.13901 19.7659C8.97805 19.2774 16.1678 18.9285 15.8183 21.4412C15.4695 23.9538 12.3982 26.8159 13.166 28.187C13.9339 29.5576 24.8925 29.4682 26.5678 28.4912C28.2431 27.5142 30.2672 20.5337 28.7316 16.205C28.1974 14.6976 28.0358 13.3783 28.0511 12.2972H26.3926C26.2262 12.4892 25.9811 12.6113 25.7071 12.6113H22.5893C22.0881 12.6113 21.6818 12.205 21.6818 11.7039C21.6818 11.2027 22.0881 10.7964 22.5893 10.7964H25.7071C25.9811 10.7964 26.2262 10.9185 26.3926 11.1105H28.1846C28.3307 10.6127 28.6096 10.1744 28.9795 9.83392C29.1025 9.72076 29.235 9.61864 29.3769 9.52864C29.6457 8.05708 30.5747 7 31.7102 7C33.0625 7 34.1218 8.49922 34.1218 10.4124C34.1218 12.0502 33.3463 13.3838 32.2748 13.7343C32.828 14.4591 33.5604 15.2744 34.5253 16.1841C37.9201 19.3834 38.4677 23.3153 38.4334 25.6844C39.9782 26.3263 41.2085 27.6318 41.7167 29.2983C41.8494 29.7332 41.5628 30.1843 41.1132 30.2513L40.8484 30.2907L39.0179 30.5628L38.0377 30.7085L35.7358 31.0508L32.8721 31.4769L31.0433 31.7484L30.7779 31.7879C30.331 31.8544 29.9231 31.511 29.9234 31.0592C29.9234 31.0563 29.9234 31.0535 29.9234 31.0507H11.403C11.5255 31.4884 11.5912 31.9499 11.5912 32.4268C11.5912 35.2392 9.31153 37.5189 6.49909 37.5189C3.68725 37.5189 1.40755 35.2392 1.40755 32.4268C1.40755 31.9499 1.47325 31.4884 1.59577 31.0507H1.52899C0.957729 31.0507 0.446587 30.6881 0.264427 30.146C0.0927658 29.6359 7.62939e-06 29.09 7.62939e-06 28.522C-5.34058e-05 26.3666 1.33969 24.5235 3.23185 23.7805ZM31.3199 12.2699C31.4464 12.383 31.5805 12.4448 31.7102 12.4448C32.1971 12.4448 32.7419 11.5754 32.7419 10.4124C32.7419 9.24934 32.1971 8.37988 31.7102 8.37988C31.2305 8.37988 30.694 9.22504 30.6791 10.3632C30.6785 10.3793 30.6785 10.3958 30.6785 10.4124C30.6785 11.2652 30.9716 11.9602 31.3199 12.2699ZM6.49909 35.7863C8.35153 35.7863 9.85855 34.2794 9.85855 32.4269C9.85855 31.9373 9.75313 31.4714 9.56377 31.0508H9.51187C9.52123 31.0343 9.53119 31.0171 9.54055 31.0006C9.00295 29.8596 7.84153 29.0681 6.49909 29.0681C5.59381 29.0681 4.77139 29.4274 4.16689 30.012C3.86167 30.3068 3.61213 30.6589 3.43549 31.0508C3.24559 31.4714 3.14023 31.9373 3.14023 32.4269C3.14023 34.2794 4.64719 35.7863 6.49909 35.7863Z" fill="#009DE0"/>
<path d="M23.8366 28.1093C22.8259 28.2108 21.5122 28.2831 19.9473 28.2831C16.5995 28.2831 14.5257 27.9381 13.9814 27.666C13.9842 27.5793 14.0134 27.3939 14.1602 27.0527C14.3523 26.6089 14.6641 26.0823 14.9987 25.5231C16.9605 26.9765 20.0036 26.6492 21.6817 26.7629C22.9109 26.8463 23.5275 27.4894 23.8366 28.1093Z" fill="#009DE0"/>
<path d="M4.66543 18.9025L5.35926 17.9575C5.80416 17.352 6.49081 16.9722 7.23991 16.917C8.49511 16.8243 10.5038 16.7498 12.1129 17.0296C13.5779 17.2846 14.2712 18.2192 14.5952 18.9644C13.5558 18.6398 12.1322 18.4803 10.3034 18.4803C8.13193 18.4803 6.06139 18.7027 5.02032 18.8352C4.90326 18.8501 4.78465 18.8722 4.66543 18.9025Z" fill="#009DE0"/>
<circle cx="14" cy="10" r="10" fill="#F4FBFE"/>
<path d="M17.7932 7.20277C18.0689 7.47313 18.0689 7.91148 17.7932 8.18182L13.0873 12.7972C12.8117 13.0676 12.3648 13.0676 12.0891 12.7972L10.2067 10.9511C9.93108 10.6807 9.93108 10.2424 10.2067 9.97204C10.4824 9.70167 10.9294 9.70167 11.205 9.97204L12.5882 11.3286L14.6916 9.2657L16.795 7.20277C17.0707 6.93241 17.5176 6.93241 17.7932 7.20277Z" fill="#009DE0"/>
</svg>
