<svg width="42" height="31" viewBox="0 0 42 31" fill="none" xmlns="http://www.w3.org/2000/svg">
<path d="M41.1526 24.1943C41.242 24.5741 41.2895 24.9699 41.2895 25.3768C41.2895 28.2167 38.9877 30.5191 36.1477 30.5191C33.417 30.5191 31.1831 28.3901 31.0158 25.7014L32.7519 25.4441C32.7872 27.2867 34.2974 28.7743 36.1477 28.7743C38.0206 28.7743 39.5446 27.2503 39.5446 25.3768C39.5446 25.0561 39.4999 24.7464 39.4171 24.4522L41.1526 24.1943Z" fill="#009DE0"/>
<path d="M5.6168 24.0512C5.87126 23.8874 6.17413 23.7924 6.49927 23.7924C6.96217 23.7924 7.38026 23.9849 7.6778 24.2941C7.86194 24.4857 8 24.7221 8.07368 24.9853C8.11304 25.1258 8.13409 25.274 8.13409 25.4271C8.13409 26.33 7.40221 27.0619 6.49927 27.0619C5.59651 27.0619 4.86464 26.33 4.86464 25.4271C4.86464 25.274 4.88569 25.1258 4.92505 24.9853C5.03425 24.5956 5.28434 24.2647 5.6168 24.0512Z" fill="#009DE0"/>
<path d="M34.5182 25.4269C34.5182 25.3424 34.5248 25.2591 34.537 25.178L37.6259 24.7187C37.6673 24.8037 37.7009 24.8925 37.7269 24.9853C37.7661 25.1261 37.7871 25.274 37.7871 25.4269C37.7871 26.33 37.0557 27.0619 36.1526 27.0619C35.2496 27.0619 34.5182 26.33 34.5182 25.4269Z" fill="#009DE0"/>
<path d="M3.23185 16.7805C3.20755 14.71 3.64363 12.9563 5.13901 12.7659C8.97805 12.2774 16.1678 11.9285 15.8184 14.4412C15.4695 16.9538 12.3982 19.8159 13.166 21.187C13.9339 22.5576 24.8925 22.4682 26.5678 21.4912C28.2431 20.5142 30.2672 13.5337 28.7316 9.20496C28.1974 7.69764 28.0358 6.3783 28.0511 5.29716H26.3926C26.2262 5.48922 25.9811 5.61126 25.7071 5.61126H22.5893C22.0881 5.61126 21.6818 5.205 21.6818 4.70388C21.6818 4.2027 22.0881 3.79644 22.5893 3.79644H25.7071C25.9811 3.79644 26.2262 3.91848 26.3926 4.11054H28.1846C28.3307 3.61272 28.6096 3.17436 28.9795 2.83392C29.1025 2.72076 29.235 2.61864 29.3769 2.52864C29.6457 1.05708 30.5747 0 31.7102 0C33.0625 0 34.1218 1.49922 34.1218 3.41244C34.1218 5.0502 33.3463 6.38382 32.2748 6.73428C32.828 7.45908 33.5604 8.27436 34.5253 9.18408C37.9201 12.3834 38.4677 16.3153 38.4334 18.6844C39.9782 19.3263 41.2085 20.6318 41.7167 22.2983C41.8494 22.7332 41.5628 23.1843 41.1132 23.2513L40.8484 23.2907L39.0179 23.5628L38.0377 23.7085L35.7358 24.0508L32.8721 24.4769L31.0433 24.7484L30.7779 24.7879C30.331 24.8544 29.9231 24.511 29.9234 24.0592C29.9234 24.0563 29.9234 24.0535 29.9234 24.0507H11.403C11.5255 24.4884 11.5912 24.9499 11.5912 25.4268C11.5912 28.2392 9.31153 30.5189 6.49909 30.5189C3.68725 30.5189 1.40755 28.2392 1.40755 25.4268C1.40755 24.9499 1.47325 24.4884 1.59577 24.0507H1.52899C0.95773 24.0507 0.446587 23.6881 0.264427 23.146C0.0927672 22.6359 8.25739e-06 22.09 8.25739e-06 21.522C-5.17426e-05 19.3666 1.33969 17.5235 3.23185 16.7805ZM31.3199 5.26986C31.4464 5.38302 31.5805 5.44482 31.7102 5.44482C32.1971 5.44482 32.7419 4.57542 32.7419 3.41238C32.7419 2.24934 32.1971 1.37988 31.7102 1.37988C31.2305 1.37988 30.694 2.22504 30.6791 3.36324C30.6785 3.37926 30.6785 3.39582 30.6785 3.41238C30.6785 4.26522 30.9716 4.9602 31.3199 5.26986ZM6.49909 28.7863C8.35153 28.7863 9.85855 27.2794 9.85855 25.4269C9.85855 24.9373 9.75313 24.4714 9.56377 24.0508H9.51187C9.52123 24.0343 9.53119 24.0171 9.54055 24.0006C9.00295 22.8596 7.84153 22.0681 6.49909 22.0681C5.59381 22.0681 4.77139 22.4274 4.16689 23.012C3.86167 23.3068 3.61213 23.6589 3.43549 24.0508C3.24559 24.4714 3.14023 24.9373 3.14023 25.4269C3.14023 27.2794 4.64719 28.7863 6.49909 28.7863Z" fill="#009DE0"/>
<path d="M23.8366 21.1093C22.8259 21.2108 21.5122 21.2831 19.9473 21.2831C16.5995 21.2831 14.5257 20.9381 13.9814 20.666C13.9842 20.5793 14.0134 20.3939 14.1602 20.0527C14.3523 19.6089 14.6641 19.0823 14.9987 18.5231C16.9605 19.9765 20.0036 19.6492 21.6817 19.7629C22.9109 19.8463 23.5275 20.4894 23.8366 21.1093Z" fill="#009DE0"/>
<path d="M4.66543 11.9026L5.35926 10.9576C5.80416 10.352 6.49081 9.97225 7.23991 9.91705C8.49511 9.82435 10.5038 9.74983 12.1129 10.0297C13.5779 10.2847 14.2712 11.2192 14.5952 11.9644C13.5558 11.6398 12.1322 11.4803 10.3034 11.4803C8.13192 11.4803 6.06138 11.7028 5.02032 11.8352C4.90326 11.8501 4.78465 11.8722 4.66543 11.9026Z" fill="#009DE0"/>
</svg>
