<svg width="29" height="32" viewBox="0 0 29 32" fill="none" xmlns="http://www.w3.org/2000/svg">
<path d="M2 6.66667H27M20.75 6.66667L20.3272 5.40366C19.9173 4.17972 19.7123 3.56775 19.3323 3.1153C18.9967 2.71576 18.5658 2.4065 18.0789 2.21588C17.5275 2 16.8797 2 15.5837 2H13.4163C12.1203 2 11.4725 2 10.9211 2.21588C10.4342 2.4065 10.0033 2.71576 9.66764 3.1153C9.28758 3.56775 9.08269 4.17972 8.67288 5.40366L8.25 6.66667M23.875 6.66667V22.5333C23.875 25.147 23.875 26.4536 23.3641 27.452C22.9147 28.3301 22.1977 29.044 21.3156 29.4913C20.3128 30 19.0003 30 16.375 30H12.625C9.99975 30 8.68713 30 7.68442 29.4913C6.80241 29.044 6.08531 28.3301 5.63591 27.452C5.125 26.4536 5.125 25.147 5.125 22.5333V6.66667M17.625 12.8889V23.7778M11.375 12.8889V23.7778" stroke="black" stroke-width="3" stroke-linecap="round" stroke-linejoin="round"/>
</svg>
